<svg xmlns="http://www.w3.org/2000/svg" viewBox="0 0 50 50"><path d="M32.977 6.822L15.175 8.094l-15.26 8.901H3.73v11.718c-.74.61-1.272 2.24-1.272 4.177 0 2.46.855 4.45 1.908 4.45s1.907-1.355 1.907-3.814c0-1.937-.531-3.955-1.271-4.734V16.995H18.99zm-6.994 6.358l-6.358 5.087H9.452c-.124.615-.159.596-.159 1.246 0 .661.07 1.307.199 1.933.353-.016 7.59-.636 11.43 2.543.744-2.255 2.81-5.15 5.742-7.784.268-.244.318-.254.591-.482 0-1.271-.585-1.808-1.272-2.543zm10.81 1.272a11.37 11.37 0 00-7.63 2.95 10.788 10.788 0 00-1.233-.944c-.152.135-.318.264-.47.403-2.068 1.857-3.692 3.845-4.736 5.643 1.54.7 2.624 2.235 2.624 4.028v14.624h7.63V26.532a4.463 4.463 0 014.45-4.45 4.463 4.463 0 014.45 4.45v14.624h7.63v-15.26c0-6.294-5.15-11.444-11.444-11.444zm-27.301 7.65a11.213 11.213 0 00-.675 3.794v15.26h7.63V26.532c0-1.102.422-2.095 1.093-2.866-1.958-.903-4.825-1.49-8.048-1.564z" fill="#fff" fill-rule="evenodd"/></svg>