<svg xmlns="http://www.w3.org/2000/svg" viewBox="0 -256 1850 1850"><path d="M269.398 1390.771h271.993V1118.78H269.398zm332.436 0h302.214V1118.78H601.834zm-332.436-332.435h271.993V756.122H269.398zm332.436 0h302.214V756.122H601.834zM269.398 695.679h271.993V423.686H269.398zm695.092 695.092h302.214V1118.78H964.49zM601.834 695.68h302.214V423.686H601.834zm725.313 695.092h271.993V1118.78h-271.993zM964.49 1058.336h302.214V756.122H964.49zM632.055 242.358V-29.634q0-12.278-8.972-21.25t-21.25-8.972h-60.442q-12.277 0-21.25 8.972-8.971 8.972-8.971 21.25v271.992q0 12.278 8.972 21.25t21.249 8.972h60.443q12.277 0 21.25-8.972 8.971-8.972 8.971-21.25zm695.092 815.978h271.993V756.122h-271.993zM964.49 695.679h302.214V423.686H964.49zm362.657 0h271.993V423.686h-271.993zm30.222-453.32V-29.635q0-12.278-8.972-21.25t-21.25-8.972h-60.443q-12.277 0-21.249 8.972t-8.972 21.25v271.992q0 12.278 8.972 21.25t21.25 8.972h60.442q12.278 0 21.25-8.972t8.972-21.25zm362.656-60.444v1208.856q0 49.11-35.888 84.998-35.887 35.888-84.997 35.888H269.398q-49.11 0-84.997-35.888-35.888-35.888-35.888-84.998V181.915q0-49.11 35.888-84.997 35.888-35.888 84.997-35.888h120.886v-90.664q0-62.332 44.388-106.72 44.387-44.387 106.719-44.387h60.443q62.331 0 106.72 44.387 44.387 44.388 44.387 106.72V61.03h362.656v-90.664q0-62.332 44.388-106.72 44.388-44.387 106.72-44.387h60.442q62.332 0 106.72 44.387 44.387 44.388 44.387 106.72V61.03h120.886q49.11 0 84.997 35.888 35.888 35.888 35.888 84.997z" stroke="#fffffd" stroke-width="173.89699902" paint-order="stroke fill markers"/></svg>