<?xml version="1.0" encoding="UTF-8" standalone="no"?>
<svg
   xmlns:dc="http://purl.org/dc/elements/1.1/"
   xmlns:cc="http://creativecommons.org/ns#"
   xmlns:rdf="http://www.w3.org/1999/02/22-rdf-syntax-ns#"
   xmlns:svg="http://www.w3.org/2000/svg"
   xmlns="http://www.w3.org/2000/svg"
   xmlns:sodipodi="http://sodipodi.sourceforge.net/DTD/sodipodi-0.dtd"
   xmlns:inkscape="http://www.inkscape.org/namespaces/inkscape"
   width="40"
   height="40"
   version="1.0"
   id="svg8"
   sodipodi:docname="time.svg"
   inkscape:version="0.92.5 (2060ec1f9f, 2020-04-08)">
  <metadata
     id="metadata14">
    <rdf:RDF>
      <cc:Work
         rdf:about="">
        <dc:format>image/svg+xml</dc:format>
        <dc:type
           rdf:resource="http://purl.org/dc/dcmitype/StillImage" />
      </cc:Work>
    </rdf:RDF>
  </metadata>
  <defs
     id="defs12" />
  <sodipodi:namedview
     pagecolor="#ffffff"
     bordercolor="#666666"
     borderopacity="1"
     objecttolerance="10"
     gridtolerance="10"
     guidetolerance="10"
     inkscape:pageopacity="0"
     inkscape:pageshadow="2"
     inkscape:window-width="1920"
     inkscape:window-height="1051"
     id="namedview10"
     showgrid="false"
     inkscape:zoom="11.8"
     inkscape:cx="5.4661017"
     inkscape:cy="24.661017"
     inkscape:window-x="0"
     inkscape:window-y="-37"
     inkscape:window-maximized="1"
     inkscape:current-layer="svg8" />
  <g
     id="g6"
     style="fill:#000000;fill-opacity:1;stroke:#ffffff;stroke-width:3.79999995;stroke-linejoin:round;stroke-miterlimit:4;stroke-dasharray:none;stroke-opacity:0.98400005;paint-order:stroke fill markers"
     transform="translate(-5,0.08474576)">
    <path
       d="M 25,2 C 15.086,2 7,10.086 7,20 7,29.914 15.086,38 25,38 34.914,38 43,29.914 43,20 43,10.086 34.914,2 25,2 Z m 0,4 c 7.75,0 14,6.25 14,14 0,7.75 -6.25,14 -14,14 C 17.25,34 11,27.75 11,20 11,12.25 17.25,6 25,6 Z"
       style="color:#000000;overflow:visible;fill:#000000;fill-opacity:1;stroke:#ffffff;stroke-width:3.79999995;stroke-miterlimit:4;stroke-dasharray:none;stroke-opacity:0.98400005;marker:none"
       overflow="visible"
       id="path2"
       inkscape:connector-curvature="0" />
    <path
       d="m 25.25,6.755 a 2,2 0 0 0 -1.969,2.032 v 13.718 a 2,2 0 0 0 3.063,1.72 l 7.281,-4.47 a 2,2 0 1 0 -2.094,-3.406 l -4.25,2.594 V 8.787 A 2,2 0 0 0 25.25,6.755 Z"
       id="path4"
       style="fill:#000000;fill-opacity:1;fill-rule:evenodd;stroke:#ffffff;stroke-width:3.79999995;stroke-linecap:round;stroke-miterlimit:4;stroke-dasharray:none;stroke-opacity:0.98400005"
       inkscape:connector-curvature="0" />
  </g>
</svg>
